<svg height="480pt" viewBox="-64 0 480 480.09942" width="480pt" xmlns="http://www.w3.org/2000/svg"><path d="m80.050781 72.097656h192v128h-192zm0 0" fill="#f3bb59"/><path d="m144.050781 136.097656c0 8.839844-7.164062 16-16 16-8.835937 0-16-7.160156-16-16 0-8.835937 7.164063-16 16-16 8.835938 0 16 7.164063 16 16zm0 0" fill="#f3e56d"/><path d="m240.050781 136.097656c0 17.675782-14.328125 32-32 32-17.675781 0-32-14.324218-32-32 0-17.671875 14.324219-32 32-32 17.671875 0 32 14.328125 32 32zm0 0" fill="#f3e56d"/><path d="m192.050781 24.097656c0 8.839844-7.164062 16-16 16-8.835937 0-16-7.160156-16-16 0-8.835937 7.164063-16 16-16 8.835938 0 16 7.164063 16 16zm0 0" fill="#67c086"/><path d="m168.050781 40.097656h16v32h-16zm0 0" fill="#be2821"/><path d="m104.050781 232.097656h144v128h-144zm0 0" fill="#69b1d5"/><path d="m104.050781 360.097656h48v32h-48zm0 0" fill="#92cdde"/><path d="m104.050781 392.097656h48v80h-48zm0 0" fill="#f3bb59"/><path d="m128.050781 440.097656c13.253907 0 24 10.746094 24 24v8h-48v-8c0-13.253906 10.742188-24 24-24zm0 0" fill="#e33e5c"/><path d="m200.050781 360.097656h48v32h-48zm0 0" fill="#92cdde"/><path d="m200.050781 392.097656h48v80h-48zm0 0" fill="#f3bb59"/><path d="m224.050781 440.097656c13.253907 0 24 10.746094 24 24v8h-48v-8c0-13.253906 10.742188-24 24-24zm0 0" fill="#e33e5c"/><path d="m136.050781 264.097656h80v96h-80zm0 0" fill="#ebb562"/><g fill="#f3e56d"><path d="m136.050781 288.097656h40v16h-40zm0 0"/><path d="m192.050781 288.097656h24v16h-24zm0 0"/><path d="m136.050781 320.097656h24v16h-24zm0 0"/><path d="m176.050781 320.097656h40v16h-40zm0 0"/></g><path d="m104.050781 176.097656h16v24h-16zm0 0" fill="#be2821"/><path d="m136.050781 176.097656h16v24h-16zm0 0" fill="#be2821"/><path d="m72.050781 232.097656h32v64h-32zm0 0" fill="#92cdde"/><path d="m8.050781 248.097656h64v32h-64zm0 0" fill="#f3bb59"/><path d="m8.050781 280.097656h32v32h-32zm0 0" fill="#d3843d"/><path d="m40.050781 344.097656c0 8.839844-7.164062 16-16 16-8.835937 0-16-7.160156-16-16 0-8.835937 7.164063-16 16-16 8.835938 0 16 7.164063 16 16zm0 0" fill="#e33e5c"/><path d="m280.050781 296.097656h-32v-64h32zm0 0" fill="#92cdde"/><path d="m344.050781 280.097656h-64v-32h64zm0 0" fill="#f3bb59"/><path d="m344.050781 248.097656h-32v-32h32zm0 0" fill="#d3843d"/><path d="m344.050781 184.097656c0 8.839844-7.164062 16-16 16-8.835937 0-16-7.160156-16-16 0-8.835937 7.164063-16 16-16 8.835938 0 16 7.164063 16 16zm0 0" fill="#e33e5c"/><path d="m200.050781 128.097656h16v16h-16zm0 0" fill="#e33e5c"/><path d="m80.050781 208.097656h192c4.417969 0 8-3.578125 8-8v-128c0-4.417968-3.582031-8-8-8h-88v-17.46875c11.019531-3.898437 17.628907-15.167968 15.652344-26.6875-1.976563-11.519531-11.964844-19.941406-23.652344-19.941406-11.691406 0-21.679687 8.421875-23.65625 19.941406-1.976562 11.519532 4.636719 22.789063 15.65625 26.6875v17.46875h-88c-4.417969 0-8 3.582032-8 8v128c0 4.421875 3.582031 8 8 8zm96-192c4.417969 0 8 3.582032 8 8 0 4.421875-3.582031 8-8 8s-8-3.578125-8-8c0-4.417968 3.582031-8 8-8zm-88 64h176v112h-112v-16h-16v16h-16v-16h-16v16h-16zm0 0"/><path d="m128.050781 160.097656c13.253907 0 24-10.742187 24-24 0-13.253906-10.746093-24-24-24-13.257812 0-24 10.746094-24 24 0 13.257813 10.742188 24 24 24zm0-32c4.417969 0 8 3.582032 8 8 0 4.421875-3.582031 8-8 8s-8-3.578125-8-8c0-4.417968 3.582031-8 8-8zm0 0"/><path d="m208.050781 176.097656c22.089844 0 40-17.90625 40-40 0-22.089844-17.910156-40-40-40-22.09375 0-40 17.910156-40 40 .023438 22.082032 17.917969 39.976563 40 40zm0-64c13.253907 0 24 10.746094 24 24 0 13.257813-10.746093 24-24 24-13.257812 0-24-10.742187-24-24 0-13.253906 10.742188-24 24-24zm0 0"/><path d="m48.050781 312.097656v-24h16v8c0 4.421875 3.582031 8 8 8h24v168c0 4.421875 3.582031 8 8 8h48c4.417969 0 8-3.578125 8-8v-104h32v104c0 4.421875 3.582031 8 8 8h48c4.417969 0 8-3.578125 8-8v-168h24c4.417969 0 8-3.578125 8-8v-8h56c4.417969 0 8-3.578125 8-8v-64c0-4.417968-3.582031-8-8-8h-32c-4.417969 0-8 3.582032-8 8v24h-16v-8c0-4.417968-3.582031-8-8-8h-208c-4.417969 0-8 3.582032-8 8v8h-56c-4.417969 0-7.9999998 3.582032-7.9999998 8v64c0 4.421875 3.5820308 8 7.9999998 8h32c4.417969 0 8-3.578125 8-8zm96 124.449219c-9.84375-5.929687-22.160156-5.929687-32 0v-36.449219h32zm-32 27.550781c0-8.835937 7.164063-16 16-16 8.835938 0 16 7.164063 16 16zm32-80h-32v-16h32zm0-48h16v-16h-16v-16h32v-16h-32v-16h64v16h-16v16h16v16h-32v16h32v16h-64zm96 32v16h-32v-16zm0 68.449219c-9.84375-5.929687-22.160156-5.929687-32 0v-36.449219h32zm-32 27.550781c0-8.835937 7.164063-16 16-16 8.835938 0 16 7.164063 16 16zm112-240h16v16h-16zm16 32v16h-48v-16zm-64 32h-16v-48h16zm-32 64h-16v-88c0-4.417968-3.582031-8-8-8h-80c-4.417969 0-8 3.582032-8 8v88h-16v-112h128zm-160-112h16v48h-16zm-64 16h48v16h-48zm16 48h-16v-16h16zm0 0"/><path d="m48.050781 344.097656c0-13.253906-10.746093-24-24-24-13.257812 0-23.9999998 10.746094-23.9999998 24 0 13.257813 10.7421878 24 23.9999998 24 13.253907 0 24-10.742187 24-24zm-24 8c-4.417969 0-8-3.578125-8-8 0-4.417968 3.582031-8 8-8s8 3.582032 8 8c0 4.421875-3.582031 8-8 8zm0 0"/><path d="m16.050781 384.097656h16v16h16v-24c0-4.417968-3.582031-8-8-8h-32c-4.417969 0-7.9999998 3.582032-7.9999998 8v24h15.9999998zm0 0"/><path d="m352.050781 184.097656c0-13.253906-10.746093-24-24-24-13.257812 0-24 10.746094-24 24 0 13.257813 10.742188 24 24 24 13.253907 0 24-10.742187 24-24zm-24 8c-4.417969 0-8-3.578125-8-8 0-4.417968 3.582031-8 8-8s8 3.582032 8 8c0 4.421875-3.582031 8-8 8zm0 0"/><path d="m352.050781 152.097656v-24h-16v16h-16v-16h-16v24c0 4.421875 3.582031 8 8 8h32c4.417969 0 8-3.578125 8-8zm0 0"/><path d="m200.050781 128.097656h16v16h-16zm0 0"/></svg>